<svg xmlns="http://www.w3.org/2000/svg" xmlns:xlink="http://www.w3.org/1999/xlink" width="800" zoomAndPan="magnify" viewBox="0 0 600 225" height="300" preserveAspectRatio="xMidYMid meet" version="1.0"><defs><g/><clipPath id="c64117d785"><path d="M 45.425781 158 L 103 158 L 103 215.710938 L 45.425781 215.710938 Z M 45.425781 158 " clip-rule="nonzero"/></clipPath><clipPath id="5a38488966"><path d="M 87.445312 149.367188 L 145.175781 149.367188 L 145.175781 207 L 87.445312 207 Z M 87.445312 149.367188 " clip-rule="nonzero"/></clipPath><clipPath id="6b0505e7e9"><path d="M 43.433594 9.222656 L 141.683594 9.222656 L 141.683594 147.972656 L 43.433594 147.972656 Z M 43.433594 9.222656 " clip-rule="nonzero"/></clipPath></defs><g clip-path="url(#c64117d785)"><path fill="#5ce1e6" d="M 88.183594 215.710938 L 52.554688 215.710938 C 48.625 215.710938 45.425781 212.515625 45.425781 208.585938 L 45.425781 172.953125 C 45.425781 170.015625 47.113281 167.496094 49.824219 166.371094 C 52.539062 165.257812 55.515625 165.84375 57.589844 167.921875 L 65.582031 175.90625 L 82.761719 158.726562 C 83.542969 157.945312 84.808594 157.945312 85.589844 158.726562 C 86.371094 159.507812 86.371094 160.773438 85.589844 161.550781 L 66.996094 180.148438 C 66.214844 180.933594 64.949219 180.933594 64.167969 180.148438 L 54.761719 170.746094 C 53.835938 169.824219 52.566406 169.574219 51.355469 170.066406 C 50.148438 170.566406 49.425781 171.648438 49.425781 172.953125 L 49.425781 208.585938 C 49.425781 210.308594 50.828125 211.710938 52.554688 211.710938 L 88.183594 211.710938 C 89.492188 211.710938 90.570312 210.988281 91.074219 209.78125 C 91.574219 208.574219 91.320312 207.300781 90.394531 206.375 L 80.992188 196.972656 C 80.210938 196.191406 80.210938 194.925781 80.992188 194.144531 L 99.585938 175.550781 C 100.367188 174.765625 101.628906 174.765625 102.414062 175.550781 C 103.191406 176.328125 103.191406 177.59375 102.414062 178.375 L 85.234375 195.558594 L 93.222656 203.546875 C 95.300781 205.625 95.890625 208.597656 94.769531 211.3125 C 93.644531 214.023438 91.121094 215.710938 88.183594 215.710938 " fill-opacity="1" fill-rule="nonzero"/></g><g clip-path="url(#5a38488966)"><path fill="#5ce1e6" d="M 106.679688 206.9375 C 106.167969 206.9375 105.65625 206.742188 105.261719 206.351562 C 104.484375 205.570312 104.484375 204.304688 105.261719 203.523438 L 123.855469 184.929688 C 124.230469 184.550781 124.738281 184.339844 125.269531 184.339844 C 125.800781 184.339844 126.3125 184.550781 126.6875 184.929688 L 136.085938 194.332031 C 137.011719 195.253906 138.285156 195.507812 139.492188 195.007812 C 140.699219 194.507812 141.421875 193.429688 141.421875 192.121094 L 141.421875 156.488281 C 141.421875 154.769531 140.019531 153.367188 138.296875 153.367188 L 102.671875 153.367188 C 101.359375 153.367188 100.285156 154.089844 99.78125 155.300781 C 99.28125 156.507812 99.535156 157.777344 100.460938 158.703125 L 109.859375 168.101562 C 110.644531 168.886719 110.644531 170.152344 109.859375 170.929688 L 91.265625 189.527344 C 90.484375 190.308594 89.21875 190.308594 88.4375 189.527344 C 87.65625 188.75 87.65625 187.480469 88.4375 186.699219 L 105.621094 169.519531 L 97.632812 161.527344 C 95.554688 159.457031 94.964844 156.484375 96.082031 153.769531 C 97.210938 151.054688 99.734375 149.363281 102.671875 149.363281 L 138.296875 149.363281 C 142.226562 149.363281 145.421875 152.5625 145.421875 156.488281 L 145.421875 192.121094 C 145.421875 195.058594 143.738281 197.578125 141.027344 198.703125 C 138.320312 199.824219 135.339844 199.238281 133.257812 197.160156 L 125.269531 189.167969 L 108.09375 206.351562 C 107.699219 206.742188 107.1875 206.9375 106.679688 206.9375 " fill-opacity="1" fill-rule="nonzero"/></g><g clip-path="url(#6b0505e7e9)"><path fill="#5ce1e6" d="M 92.679688 9.632812 C 65.320312 9.632812 43.433594 31.808594 43.433594 58.882812 C 43.433594 85.953125 92.679688 147.875 92.679688 147.875 C 92.679688 147.875 141.929688 86.242188 141.929688 58.882812 C 141.929688 31.523438 120.042969 9.632812 92.679688 9.632812 Z M 92.679688 95.746094 C 72.234375 95.746094 55.816406 79.328125 55.816406 58.882812 C 55.816406 38.433594 72.234375 22.019531 92.679688 22.019531 C 113.128906 22.019531 129.546875 38.433594 129.546875 58.882812 C 129.546875 79.328125 113.128906 95.746094 92.679688 95.746094 Z M 92.679688 95.746094 " fill-opacity="1" fill-rule="nonzero"/></g><path fill="#5ce1e6" d="M 95.5625 54.851562 L 95.273438 43.328125 C 98.441406 43.90625 101.320312 45.058594 103.914062 46.785156 L 107.945312 41.027344 C 103.914062 38.433594 99.59375 36.707031 95.273438 36.417969 L 95.273438 33.539062 L 91.242188 33.539062 L 91.242188 36.707031 C 87.210938 36.992188 84.042969 38.144531 81.738281 40.449219 C 79.144531 42.753906 77.992188 45.632812 77.992188 49.089844 C 77.992188 52.546875 79.144531 55.425781 81.160156 57.152344 C 83.175781 58.882812 86.632812 60.320312 91.242188 61.472656 L 91.242188 73.28125 C 87.496094 72.707031 84.042969 70.976562 80.585938 68.097656 L 75.976562 73.28125 C 80.296875 77.027344 85.480469 79.328125 90.953125 79.90625 L 90.953125 84.515625 L 94.984375 84.515625 L 94.984375 80.195312 C 99.019531 79.90625 102.472656 78.753906 105.066406 76.449219 C 107.65625 74.144531 108.808594 71.265625 108.808594 67.808594 C 108.808594 64.355469 107.65625 61.472656 105.640625 59.746094 C 103.625 57.441406 100.167969 56 95.5625 54.851562 Z M 91.242188 53.699219 C 88.9375 52.832031 87.496094 52.257812 86.632812 51.394531 C 85.769531 50.53125 85.480469 49.378906 85.480469 48.226562 C 85.480469 46.785156 86.058594 45.632812 86.921875 44.769531 C 88.074219 43.90625 89.511719 43.328125 91.242188 43.042969 Z M 99.882812 71.554688 C 98.730469 72.417969 97.289062 72.992188 95.273438 73.28125 L 95.273438 62.339844 C 97.867188 63.203125 99.304688 63.777344 100.167969 64.640625 C 101.035156 65.507812 101.609375 66.65625 101.609375 68.097656 C 101.609375 69.539062 101.035156 70.691406 99.882812 71.554688 Z M 99.882812 71.554688 " fill-opacity="1" fill-rule="nonzero"/><g fill="#38b6ff" fill-opacity="1"><g transform="translate(136.187733, 104.386212)"><g><path d="M 15.359375 0.359375 L 14.53125 0.3125 L 13.734375 0.125 L 12.84375 -0.171875 L 12.046875 -0.359375 L 10.0625 -1.1875 L 8.171875 -2.203125 L 6.1875 -3.9375 L 4.375 -5.875 L 2.46875 -9.71875 L 1.859375 -12.234375 L 1.59375 -15.453125 L 2.03125 -19.25 L 2.46875 -21.0625 L 3.578125 -23.53125 L 4.421875 -24.8125 L 5.609375 -26.3125 L 7.5 -28.046875 L 8.78125 -29.015625 L 12.046875 -30.5625 L 16.34375 -31.390625 L 19.078125 -31.34375 L 19.953125 -31.21875 L 20.796875 -31.171875 L 25.03125 -29.765625 L 28.046875 -27.859375 L 29.28125 -26.578125 L 29.765625 -25.75 L 30.375 -25 L 30.78125 -24.28125 L 31.265625 -23.578125 L 31.53125 -22.65625 L 31.84375 -21.859375 L 32.109375 -20.890625 L 31.796875 -20 L 31.046875 -19.65625 L 29.71875 -19.515625 L 28.484375 -19.65625 L 27.59375 -19.609375 L 26.671875 -19.65625 L 25.875 -19.5625 L 24.859375 -20.046875 L 24.015625 -20.890625 L 23.53125 -21.546875 L 22.25 -22.828125 L 21.640625 -23.3125 L 20.84375 -23.625 L 19.46875 -24.015625 L 17.578125 -24.109375 L 14.609375 -23.71875 L 13.421875 -23.046875 L 12.359375 -22.203125 L 11.296875 -20.96875 L 10.859375 -20.140625 L 10.203125 -18.546875 L 9.890625 -16.78125 L 9.890625 -14.078125 L 10.03125 -13.109375 L 10.25 -12.3125 L 10.546875 -11.703125 L 10.859375 -10.8125 L 11.828125 -9.265625 L 13.109375 -8.125 L 14.65625 -7.328125 L 16.25 -6.75 L 17.53125 -6.625 L 19.875 -6.75 L 21.421875 -7.59375 L 22.078125 -7.859375 L 22.78125 -8.484375 L 23.796875 -9.625 L 24.234375 -10.46875 L 24.953125 -11.171875 L 25.96875 -11.703125 L 26.84375 -11.65625 L 27.734375 -11.703125 L 28.609375 -11.5625 L 31.09375 -11.75 L 31.96875 -11.171875 L 32.234375 -10.375 L 31.09375 -7.015625 L 30.15625 -5.4375 L 29.140625 -4.109375 L 27.90625 -2.875 L 25.75 -1.328125 L 25 -0.96875 L 24.0625 -0.65625 L 23.265625 -0.21875 L 20.671875 0.3125 L 17.578125 0.53125 Z M 15.359375 0.359375 "/></g></g></g><g fill="#38b6ff" fill-opacity="1"><g transform="translate(169.87233, 104.386212)"><g><path d="M 13.03125 0.359375 L 12.1875 0.125 L 11.21875 0.09375 L 10.546875 -0.265625 L 9.53125 -0.578125 L 8.703125 -0.921875 L 8.03125 -1.453125 L 6.53125 -2.34375 L 5.96875 -2.921875 L 4.765625 -4.375 L 3.890625 -5.875 L 3.625 -6.71875 L 3.484375 -7.546875 L 3.21875 -8.4375 L 3.21875 -9.359375 L 3.09375 -10.640625 L 3.140625 -13.828125 L 3 -15.59375 L 3.09375 -16.421875 L 3.046875 -17.3125 L 3.140625 -18.140625 L 3 -19.125 L 3.171875 -19.953125 L 2.953125 -22.609375 L 3.09375 -24.28125 L 2.921875 -26.140625 L 3.140625 -26.890625 L 3.140625 -29.546875 L 3.53125 -30.421875 L 4.421875 -30.90625 L 9.046875 -30.859375 L 10.109375 -30.46875 L 10.59375 -29.625 L 10.59375 -28.703125 L 10.375 -27.375 L 10.375 -26.53125 L 10.515625 -25.25 L 10.515625 -21.71875 L 10.421875 -20.9375 L 10.46875 -18.1875 L 10.59375 -17.3125 L 10.6875 -9.53125 L 10.953125 -8.609375 L 11.484375 -8 L 12.140625 -7.421875 L 13.109375 -6.9375 L 13.90625 -6.71875 L 15.359375 -6.625 L 16.5625 -6.71875 L 18.328125 -7.28125 L 19.03125 -7.953125 L 19.421875 -8.5625 L 19.828125 -9.40625 L 20 -10.8125 L 19.953125 -13.0625 L 20.046875 -13.953125 L 20 -15.546875 L 20.09375 -16.515625 L 19.921875 -17.3125 L 20.046875 -20.796875 L 19.921875 -21.71875 L 20 -22.65625 L 19.953125 -24.375 L 20.046875 -25.25 L 20 -29.578125 L 20.4375 -30.5625 L 21.421875 -30.953125 L 25.5625 -30.90625 L 26.984375 -30.515625 L 27.328125 -29.546875 L 27.46875 -28.796875 L 27.421875 -25.21875 L 27.546875 -24.328125 L 27.421875 -23.484375 L 27.46875 -22.515625 L 27.375 -21.15625 L 27.421875 -19.921875 L 27.328125 -18.984375 L 27.375 -18.140625 L 27.546875 -17.265625 L 27.546875 -16.46875 L 27.375 -15.546875 L 27.515625 -11.96875 L 27.203125 -7.5 L 26.890625 -6.671875 L 26.453125 -5.921875 L 26.1875 -5.03125 L 25.609375 -4.375 L 25.125 -3.578125 L 23.140625 -1.8125 L 22.4375 -1.328125 L 21.640625 -0.96875 L 20.9375 -0.53125 L 20.046875 -0.3125 L 19.125 0.046875 L 17.359375 0.4375 L 15.140625 0.53125 Z M 13.03125 0.359375 "/></g></g></g><g fill="#38b6ff" fill-opacity="1"><g transform="translate(200.334155, 104.386212)"><g><path d="M 3.40625 -1.40625 L 3.265625 -4.859375 L 3.359375 -5.78125 L 3.171875 -8.34375 L 3.3125 -10.15625 L 3.171875 -11.125 L 3.21875 -12.8125 L 3.3125 -13.734375 L 3.3125 -15.9375 L 3.171875 -17.21875 L 3.3125 -29.578125 L 3.671875 -30.515625 L 4.5 -30.90625 L 5.46875 -30.859375 L 6.3125 -31 L 8.125 -30.828125 L 8.96875 -30.953125 L 11.609375 -30.859375 L 12.359375 -30.953125 L 13.328125 -30.859375 L 14.21875 -30.953125 L 15.1875 -30.90625 L 16.46875 -30.953125 L 17.578125 -30.859375 L 21.234375 -30.109375 L 22.78125 -29.3125 L 25 -27.640625 L 25.390625 -26.984375 L 26.015625 -26.3125 L 27.203125 -23.890625 L 27.421875 -23 L 27.546875 -22.171875 L 27.78125 -21.328125 L 27.734375 -17.84375 L 27.25 -16.15625 L 26.9375 -15.40625 L 26.453125 -14.609375 L 26.140625 -13.78125 L 25.609375 -13.03125 L 24.375 -11.828125 L 23.890625 -10.90625 L 24.015625 -9.84375 L 25.34375 -7.546875 L 25.921875 -6.84375 L 26.359375 -6.046875 L 26.890625 -5.25 L 27.28125 -4.5 L 28.703125 -2.34375 L 29.28125 -1.234375 L 29.09375 -0.3125 L 28.171875 -0.09375 L 27.203125 0 L 25.4375 0 L 24.546875 -0.09375 L 23.578125 0 L 21.984375 -0.09375 L 20.890625 -0.359375 L 20 -1.140625 L 19.46875 -1.859375 L 19.078125 -2.609375 L 18.5 -3.4375 L 17.265625 -5.65625 L 16.953125 -6.484375 L 15.8125 -8.03125 L 15.09375 -8.78125 L 14 -9.140625 L 13.203125 -9.09375 L 12.40625 -9.09375 L 11.53125 -8.65625 L 11.125 -7.765625 L 11.21875 -5.03125 L 11.078125 -3.140625 L 11.265625 -2.203125 L 11.171875 -1.28125 L 10.859375 -0.4375 L 9.5 0 L 8.171875 0 L 7.234375 -0.09375 L 5.4375 0.046875 L 4.59375 0 L 3.703125 -0.4375 Z M 12.40625 -16.25 L 13.375 -16.25 L 14.265625 -16.109375 L 17.703125 -16.421875 L 18.375 -16.734375 L 18.90625 -17.265625 L 19.390625 -18.015625 L 19.734375 -18.90625 L 19.875 -20.09375 L 19.78125 -21.375 L 19.46875 -22.078125 L 19.03125 -22.734375 L 17.65625 -23.578125 L 15.625 -23.84375 L 13.203125 -23.890625 L 12.5 -23.84375 L 11.609375 -23.40625 L 11.078125 -22.515625 L 11.21875 -17.578125 L 11.65625 -16.640625 Z M 12.40625 -16.25 "/></g></g></g><g fill="#38b6ff" fill-opacity="1"><g transform="translate(230.928427, 104.386212)"><g><path d="M 3.40625 -1.40625 L 3.265625 -4.859375 L 3.359375 -5.78125 L 3.171875 -8.34375 L 3.3125 -10.15625 L 3.171875 -11.125 L 3.21875 -12.8125 L 3.3125 -13.734375 L 3.3125 -15.9375 L 3.171875 -17.21875 L 3.3125 -29.578125 L 3.671875 -30.515625 L 4.5 -30.90625 L 5.46875 -30.859375 L 6.3125 -31 L 8.125 -30.828125 L 8.96875 -30.953125 L 11.609375 -30.859375 L 12.359375 -30.953125 L 13.328125 -30.859375 L 14.21875 -30.953125 L 15.1875 -30.90625 L 16.46875 -30.953125 L 17.578125 -30.859375 L 21.234375 -30.109375 L 22.78125 -29.3125 L 25 -27.640625 L 25.390625 -26.984375 L 26.015625 -26.3125 L 27.203125 -23.890625 L 27.421875 -23 L 27.546875 -22.171875 L 27.78125 -21.328125 L 27.734375 -17.84375 L 27.25 -16.15625 L 26.9375 -15.40625 L 26.453125 -14.609375 L 26.140625 -13.78125 L 25.609375 -13.03125 L 24.375 -11.828125 L 23.890625 -10.90625 L 24.015625 -9.84375 L 25.34375 -7.546875 L 25.921875 -6.84375 L 26.359375 -6.046875 L 26.890625 -5.25 L 27.28125 -4.5 L 28.703125 -2.34375 L 29.28125 -1.234375 L 29.09375 -0.3125 L 28.171875 -0.09375 L 27.203125 0 L 25.4375 0 L 24.546875 -0.09375 L 23.578125 0 L 21.984375 -0.09375 L 20.890625 -0.359375 L 20 -1.140625 L 19.46875 -1.859375 L 19.078125 -2.609375 L 18.5 -3.4375 L 17.265625 -5.65625 L 16.953125 -6.484375 L 15.8125 -8.03125 L 15.09375 -8.78125 L 14 -9.140625 L 13.203125 -9.09375 L 12.40625 -9.09375 L 11.53125 -8.65625 L 11.125 -7.765625 L 11.21875 -5.03125 L 11.078125 -3.140625 L 11.265625 -2.203125 L 11.171875 -1.28125 L 10.859375 -0.4375 L 9.5 0 L 8.171875 0 L 7.234375 -0.09375 L 5.4375 0.046875 L 4.59375 0 L 3.703125 -0.4375 Z M 12.40625 -16.25 L 13.375 -16.25 L 14.265625 -16.109375 L 17.703125 -16.421875 L 18.375 -16.734375 L 18.90625 -17.265625 L 19.390625 -18.015625 L 19.734375 -18.90625 L 19.875 -20.09375 L 19.78125 -21.375 L 19.46875 -22.078125 L 19.03125 -22.734375 L 17.65625 -23.578125 L 15.625 -23.84375 L 13.203125 -23.890625 L 12.5 -23.84375 L 11.609375 -23.40625 L 11.078125 -22.515625 L 11.21875 -17.578125 L 11.65625 -16.640625 Z M 12.40625 -16.25 "/></g></g></g><g fill="#38b6ff" fill-opacity="1"><g transform="translate(261.522699, 104.386212)"><g><path d="M 3.171875 -1.28125 L 3.359375 -2.15625 L 3.40625 -3.046875 L 3.3125 -4.765625 L 3.3125 -5.65625 L 3.21875 -6.671875 L 3.359375 -7.46875 L 3.3125 -8.296875 L 3.40625 -9.265625 L 3.265625 -10.203125 L 3.359375 -11.96875 L 3.21875 -13.6875 L 3.359375 -14.609375 L 3.359375 -22.515625 L 3.265625 -23.3125 L 3.359375 -24.234375 L 3.171875 -26.5 L 3.359375 -27.78125 L 3.265625 -29.546875 L 3.703125 -30.515625 L 4.984375 -30.828125 L 10.78125 -30.953125 L 11.5625 -30.859375 L 13.296875 -30.90625 L 14.171875 -30.828125 L 16.109375 -30.90625 L 17 -30.78125 L 17.796875 -30.859375 L 21.328125 -30.828125 L 22.25 -30.421875 L 22.703125 -29.546875 L 22.5625 -28.703125 L 22.515625 -27.734375 L 22.65625 -26.890625 L 22.734375 -25.078125 L 22.25 -24.28125 L 21.328125 -23.796875 L 12.84375 -23.75 L 11.484375 -23.359375 L 11.046875 -22.078125 L 11.125 -20.703125 L 11.65625 -19.921875 L 12.40625 -19.421875 L 15.890625 -19.46875 L 16.90625 -19.390625 L 17.84375 -19.390625 L 18.71875 -19.46875 L 20.484375 -19.421875 L 21.234375 -18.9375 L 21.640625 -18.109375 L 21.71875 -17.21875 L 21.640625 -13.734375 L 21.1875 -12.890625 L 20.3125 -12.40625 L 19.515625 -12.359375 L 18.59375 -12.453125 L 17.390625 -12.359375 L 15.0625 -12.5 L 14.171875 -12.40625 L 12.453125 -12.40625 L 11.65625 -11.921875 L 11.265625 -11 L 11.21875 -8.828125 L 11.609375 -7.46875 L 12.546875 -6.9375 L 13.515625 -7.015625 L 14.484375 -6.9375 L 15.328125 -7.0625 L 21.15625 -6.984375 L 22.46875 -6.53125 L 23.046875 -5.65625 L 22.96875 -4.8125 L 23 -2.078125 L 22.921875 -1.234375 L 22.515625 -0.390625 L 21.59375 0.046875 L 20.75 0.125 L 18.0625 -0.046875 L 15.359375 0.09375 L 14.578125 -0.046875 L 4.59375 0.046875 L 3.75 -0.4375 Z M 3.171875 -1.28125 "/></g></g></g><g fill="#38b6ff" fill-opacity="1"><g transform="translate(286.819258, 104.386212)"><g><path d="M 26.046875 -0.703125 L 25.484375 -1.28125 L 24.953125 -1.9375 L 24.234375 -2.515625 L 23.671875 -3.21875 L 19.390625 -7.5 L 18.671875 -8.078125 L 12.359375 -14.265625 L 11.796875 -14.390625 L 11.34375 -13.859375 L 11.53125 -12.9375 L 11.390625 -2.125 L 11.53125 -1.234375 L 11.125 -0.359375 L 10.25 0.09375 L 9.234375 0 L 8.296875 0.125 L 6.09375 0 L 4.59375 0.09375 L 3.75 -0.390625 L 3.359375 -1.375 L 3.359375 -2.203125 L 3.21875 -3.09375 L 3.359375 -4.765625 L 3.265625 -5.65625 L 3.3125 -7.46875 L 3.171875 -8.390625 L 3.171875 -9.234375 L 3.265625 -10.203125 L 3.265625 -11.046875 L 3.359375 -11.828125 L 3.171875 -18.140625 L 3.3125 -19.078125 L 3.265625 -20 L 3.359375 -20.796875 L 3.21875 -22.609375 L 3.3125 -23.484375 L 3.21875 -29.671875 L 3.796875 -30.515625 L 4.859375 -31.046875 L 6.046875 -30.6875 L 7.8125 -29.5 L 10.203125 -27.0625 L 10.78125 -26.3125 L 11.53125 -25.78125 L 11.96875 -25.125 L 12.8125 -24.546875 L 13.296875 -23.890625 L 14.65625 -22.734375 L 15.59375 -21.765625 L 16.078125 -21.15625 L 16.78125 -20.625 L 18.328125 -19.03125 L 18.984375 -18.5 L 20.9375 -16.515625 L 21.546875 -16.34375 L 21.765625 -17.046875 L 21.71875 -18.8125 L 21.90625 -19.734375 L 21.90625 -20.578125 L 21.71875 -21.5 L 21.765625 -29.546875 L 22.203125 -30.46875 L 23.265625 -30.90625 L 24.15625 -30.859375 L 24.953125 -30.953125 L 25.875 -30.828125 L 26.84375 -30.90625 L 27.6875 -30.90625 L 28.5625 -30.828125 L 29.546875 -30.375 L 30.078125 -29.578125 L 29.984375 -27.28125 L 30.078125 -25.96875 L 29.890625 -25.078125 L 29.890625 -23.3125 L 29.984375 -22.46875 L 29.84375 -20.703125 L 30.03125 -15.40625 L 29.9375 -14.4375 L 30.109375 -13.203125 L 29.890625 -1.1875 L 29.5 -0.265625 L 28.484375 0.21875 L 27.328125 -0.125 Z M 26.046875 -0.703125 "/></g></g></g><g fill="#38b6ff" fill-opacity="1"><g transform="translate(320.106529, 104.386212)"><g><path d="M 16.25 0.4375 L 15.40625 0.4375 L 14.609375 0.265625 L 13.6875 0.171875 L 12.765625 -0.125 L 12.09375 -0.3125 L 11.21875 -0.625 L 8.21875 -2.25 L 7.546875 -2.78125 L 6.796875 -3.265625 L 5.203125 -4.8125 L 3.4375 -7.375 L 3.140625 -8.125 L 2.6875 -8.921875 L 2.5625 -9.71875 L 2.203125 -10.546875 L 1.765625 -12.28125 L 1.765625 -14.046875 L 1.59375 -15.453125 L 2.390625 -20.96875 L 4.421875 -24.953125 L 4.953125 -25.703125 L 6.140625 -26.796875 L 6.671875 -27.515625 L 9.765625 -29.5 L 10.546875 -29.8125 L 11.21875 -30.203125 L 12.046875 -30.515625 L 13.78125 -30.859375 L 14.609375 -31.125 L 15.359375 -31.21875 L 19.390625 -31.21875 L 21.59375 -30.90625 L 23.3125 -30.421875 L 25.828125 -29.28125 L 26.796875 -28.609375 L 29.09375 -26.53125 L 30.734375 -24.28125 L 31.4375 -22.609375 L 31.578125 -21.8125 L 31.921875 -20.9375 L 31.65625 -20 L 30.953125 -19.609375 L 30.078125 -19.515625 L 25.609375 -19.609375 L 24.640625 -20 L 23.84375 -20.84375 L 23.453125 -21.59375 L 22.78125 -22.296875 L 21.5 -23.359375 L 20.578125 -23.671875 L 18.90625 -23.984375 L 16.15625 -24.0625 L 14.609375 -23.625 L 13.78125 -23.265625 L 12.3125 -22.203125 L 11.21875 -20.84375 L 10.46875 -19.25 L 10.203125 -18.453125 L 10.15625 -17.578125 L 9.84375 -16.78125 L 9.796875 -15.359375 L 9.9375 -13.296875 L 10.46875 -11.5625 L 10.8125 -10.8125 L 12.453125 -8.703125 L 13.03125 -8.078125 L 13.859375 -7.6875 L 16.25 -6.796875 L 18.71875 -6.75 L 19.65625 -6.84375 L 20.53125 -7.109375 L 22.03125 -7.859375 L 23.71875 -9.671875 L 24.0625 -10.421875 L 24.953125 -11.265625 L 25.921875 -11.703125 L 30.640625 -11.65625 L 31.75 -11.171875 L 32.015625 -10.375 L 31.875 -9.53125 L 31.578125 -8.65625 L 31.34375 -7.8125 L 30.953125 -7.015625 L 29.625 -4.71875 L 28.875 -4.15625 L 28.390625 -3.40625 L 27.8125 -2.828125 L 27.0625 -2.296875 L 26.265625 -1.8125 L 25.609375 -1.375 L 23.1875 -0.3125 L 18.90625 0.578125 Z M 16.25 0.4375 "/></g></g></g><g fill="#38b6ff" fill-opacity="1"><g transform="translate(353.791139, 104.386212)"><g><path d="M 10.15625 -1.234375 L 10.25 -2.15625 L 10.03125 -3.96875 L 10.0625 -5.65625 L 10.15625 -6.453125 L 10.109375 -7.28125 L 10.03125 -8.171875 L 10.0625 -11.65625 L 9.84375 -12.9375 L 9.5 -14.078125 L 5.5625 -20.265625 L 5.203125 -21.015625 L 0.4375 -28.5625 L 0 -29.625 L 0.09375 -30.59375 L 1.0625 -30.859375 L 6.890625 -30.953125 L 8 -30.46875 L 8.96875 -29.765625 L 9.3125 -28.875 L 9.796875 -28.125 L 12.015625 -24.234375 L 12.28125 -23.359375 L 12.671875 -22.5625 L 13.6875 -20.96875 L 14.3125 -21.0625 L 15.765625 -23.453125 L 16.421875 -25.03125 L 17.4375 -26.5 L 17.703125 -27.328125 L 18.28125 -28.171875 L 19.03125 -29.671875 L 19.953125 -30.515625 L 21.0625 -30.953125 L 21.90625 -30.859375 L 23.578125 -30.859375 L 24.5 -31 L 26.234375 -30.859375 L 27.109375 -31 L 27.953125 -30.640625 L 28.078125 -29.578125 L 27.46875 -28.53125 L 27.15625 -27.734375 L 26.625 -27.0625 L 21.546875 -18.671875 L 20.4375 -17.21875 L 19.953125 -16.46875 L 19.609375 -15.625 L 18.0625 -12.9375 L 17.84375 -11.65625 L 18.015625 -10.859375 L 17.890625 -8.296875 L 18.015625 -7.375 L 17.796875 -4.6875 L 17.84375 -3.890625 L 17.796875 -3.046875 L 17.890625 -2.125 L 17.890625 -1.375 L 17.4375 -0.484375 L 16.109375 -0.046875 L 14.875 0 L 13.953125 -0.046875 L 13.0625 0.046875 L 11.484375 -0.046875 L 10.640625 -0.484375 Z M 10.15625 -1.234375 "/></g></g></g><g fill="#38b6ff" fill-opacity="1"><g transform="translate(381.877888, 104.386212)"><g/></g></g><g fill="#38b6ff" fill-opacity="1"><g transform="translate(136.187733, 165.647062)"><g/></g></g><g fill="#38b6ff" fill-opacity="1"><g transform="translate(148.151732, 165.647062)"><g/></g></g><g fill="#38b6ff" fill-opacity="1"><g transform="translate(160.115731, 165.647062)"><g/></g></g><g fill="#38b6ff" fill-opacity="1"><g transform="translate(172.07973, 165.647062)"><g/></g></g><g fill="#38b6ff" fill-opacity="1"><g transform="translate(184.043729, 165.647062)"><g/></g></g><g fill="#38b6ff" fill-opacity="1"><g transform="translate(196.007728, 165.647062)"><g/></g></g><g fill="#38b6ff" fill-opacity="1"><g transform="translate(207.971727, 165.647062)"><g/></g></g><g fill="#38b6ff" fill-opacity="1"><g transform="translate(219.935727, 165.647062)"><g/></g></g><g fill="#38b6ff" fill-opacity="1"><g transform="translate(231.899726, 165.647062)"><g/></g></g><g fill="#38b6ff" fill-opacity="1"><g transform="translate(243.863725, 165.647062)"><g/></g></g><g fill="#38b6ff" fill-opacity="1"><g transform="translate(255.827724, 165.647062)"><g/></g></g><g fill="#38b6ff" fill-opacity="1"><g transform="translate(267.791723, 165.647062)"><g/></g></g><g fill="#38b6ff" fill-opacity="1"><g transform="translate(279.755722, 165.647062)"><g/></g></g><g fill="#38b6ff" fill-opacity="1"><g transform="translate(291.719923, 165.647062)"><g><path d="M 15.359375 0.359375 L 14.53125 0.3125 L 13.734375 0.125 L 12.84375 -0.171875 L 12.046875 -0.359375 L 10.0625 -1.1875 L 8.171875 -2.203125 L 6.1875 -3.9375 L 4.375 -5.875 L 2.46875 -9.71875 L 1.859375 -12.234375 L 1.59375 -15.453125 L 2.03125 -19.25 L 2.46875 -21.0625 L 3.578125 -23.53125 L 4.421875 -24.8125 L 5.609375 -26.3125 L 7.5 -28.046875 L 8.78125 -29.015625 L 12.046875 -30.5625 L 16.34375 -31.390625 L 19.078125 -31.34375 L 19.953125 -31.21875 L 20.796875 -31.171875 L 25.03125 -29.765625 L 28.046875 -27.859375 L 29.28125 -26.578125 L 29.765625 -25.75 L 30.375 -25 L 30.78125 -24.28125 L 31.265625 -23.578125 L 31.53125 -22.65625 L 31.84375 -21.859375 L 32.109375 -20.890625 L 31.796875 -20 L 31.046875 -19.65625 L 29.71875 -19.515625 L 28.484375 -19.65625 L 27.59375 -19.609375 L 26.671875 -19.65625 L 25.875 -19.5625 L 24.859375 -20.046875 L 24.015625 -20.890625 L 23.53125 -21.546875 L 22.25 -22.828125 L 21.640625 -23.3125 L 20.84375 -23.625 L 19.46875 -24.015625 L 17.578125 -24.109375 L 14.609375 -23.71875 L 13.421875 -23.046875 L 12.359375 -22.203125 L 11.296875 -20.96875 L 10.859375 -20.140625 L 10.203125 -18.546875 L 9.890625 -16.78125 L 9.890625 -14.078125 L 10.03125 -13.109375 L 10.25 -12.3125 L 10.546875 -11.703125 L 10.859375 -10.8125 L 11.828125 -9.265625 L 13.109375 -8.125 L 14.65625 -7.328125 L 16.25 -6.75 L 17.53125 -6.625 L 19.875 -6.75 L 21.421875 -7.59375 L 22.078125 -7.859375 L 22.78125 -8.484375 L 23.796875 -9.625 L 24.234375 -10.46875 L 24.953125 -11.171875 L 25.96875 -11.703125 L 26.84375 -11.65625 L 27.734375 -11.703125 L 28.609375 -11.5625 L 31.09375 -11.75 L 31.96875 -11.171875 L 32.234375 -10.375 L 31.09375 -7.015625 L 30.15625 -5.4375 L 29.140625 -4.109375 L 27.90625 -2.875 L 25.75 -1.328125 L 25 -0.96875 L 24.0625 -0.65625 L 23.265625 -0.21875 L 20.671875 0.3125 L 17.578125 0.53125 Z M 15.359375 0.359375 "/></g></g></g><g fill="#38b6ff" fill-opacity="1"><g transform="translate(325.40452, 165.647062)"><g><path d="M 16.515625 0.53125 L 15.59375 0.4375 L 14 0.09375 L 13.03125 0 L 11.75 -0.4375 L 8.296875 -2.203125 L 6.84375 -3.359375 L 6.359375 -3.9375 L 5.703125 -4.546875 L 5.125 -5.25 L 4.59375 -5.78125 L 2.5625 -9.796875 L 2.15625 -11.484375 L 2.078125 -12.3125 L 1.859375 -13.109375 L 1.71875 -14.046875 L 1.859375 -17.625 L 2.609375 -21.015625 L 3.265625 -22.703125 L 4.640625 -25.03125 L 6.796875 -27.546875 L 8.296875 -28.65625 L 9.09375 -29.0625 L 9.765625 -29.546875 L 13.0625 -30.78125 L 17.75 -31.4375 L 18.9375 -31.390625 L 21.5 -30.953125 L 24.90625 -29.890625 L 25.5625 -29.40625 L 26.890625 -28.828125 L 27.90625 -28.125 L 29.1875 -27.03125 L 30.421875 -25.65625 L 31.390625 -24.328125 L 32.234375 -22.703125 L 33.34375 -19.390625 L 33.640625 -17.578125 L 33.78125 -15.359375 L 33.609375 -14.078125 L 33.5625 -13.15625 L 33.34375 -12.28125 L 33.296875 -11.484375 L 32.9375 -9.796875 L 32.28125 -8.125 L 30.328125 -5.171875 L 29.71875 -4.546875 L 29.140625 -3.75 L 27.90625 -2.6875 L 27.0625 -2.296875 L 26.40625 -1.765625 L 24.953125 -0.96875 L 21.640625 0.125 L 18.984375 0.484375 Z M 18.984375 -7.28125 L 19.875 -7.46875 L 20.53125 -7.765625 L 21.328125 -8 L 23.453125 -9.453125 L 24.0625 -10.15625 L 24.328125 -10.8125 L 24.8125 -11.609375 L 25.125 -12.40625 L 25.484375 -14.046875 L 25.5625 -16.734375 L 25.4375 -17.53125 L 25.03125 -18.375 L 24.5 -20.046875 L 22.78125 -21.859375 L 21.421875 -22.828125 L 20.625 -23.1875 L 19.828125 -23.359375 L 17.703125 -23.625 L 16.46875 -23.53125 L 14.75 -23.09375 L 14.171875 -22.875 L 11.96875 -21.375 L 10.90625 -19.953125 L 10.640625 -19.15625 L 10.28125 -18.375 L 10.15625 -17.53125 L 9.9375 -16.734375 L 9.9375 -14.046875 L 10.28125 -12.40625 L 10.6875 -11.609375 L 10.90625 -10.90625 L 11.53125 -10.0625 L 12.09375 -9.453125 L 13.296875 -8.484375 L 14 -8.078125 L 15.59375 -7.421875 L 16.5625 -7.28125 Z M 18.984375 -7.28125 "/></g></g></g><g fill="#38b6ff" fill-opacity="1"><g transform="translate(360.810881, 165.647062)"><g><path d="M 26.046875 -0.703125 L 25.484375 -1.28125 L 24.953125 -1.9375 L 24.234375 -2.515625 L 23.671875 -3.21875 L 19.390625 -7.5 L 18.671875 -8.078125 L 12.359375 -14.265625 L 11.796875 -14.390625 L 11.34375 -13.859375 L 11.53125 -12.9375 L 11.390625 -2.125 L 11.53125 -1.234375 L 11.125 -0.359375 L 10.25 0.09375 L 9.234375 0 L 8.296875 0.125 L 6.09375 0 L 4.59375 0.09375 L 3.75 -0.390625 L 3.359375 -1.375 L 3.359375 -2.203125 L 3.21875 -3.09375 L 3.359375 -4.765625 L 3.265625 -5.65625 L 3.3125 -7.46875 L 3.171875 -8.390625 L 3.171875 -9.234375 L 3.265625 -10.203125 L 3.265625 -11.046875 L 3.359375 -11.828125 L 3.171875 -18.140625 L 3.3125 -19.078125 L 3.265625 -20 L 3.359375 -20.796875 L 3.21875 -22.609375 L 3.3125 -23.484375 L 3.21875 -29.671875 L 3.796875 -30.515625 L 4.859375 -31.046875 L 6.046875 -30.6875 L 7.8125 -29.5 L 10.203125 -27.0625 L 10.78125 -26.3125 L 11.53125 -25.78125 L 11.96875 -25.125 L 12.8125 -24.546875 L 13.296875 -23.890625 L 14.65625 -22.734375 L 15.59375 -21.765625 L 16.078125 -21.15625 L 16.78125 -20.625 L 18.328125 -19.03125 L 18.984375 -18.5 L 20.9375 -16.515625 L 21.546875 -16.34375 L 21.765625 -17.046875 L 21.71875 -18.8125 L 21.90625 -19.734375 L 21.90625 -20.578125 L 21.71875 -21.5 L 21.765625 -29.546875 L 22.203125 -30.46875 L 23.265625 -30.90625 L 24.15625 -30.859375 L 24.953125 -30.953125 L 25.875 -30.828125 L 26.84375 -30.90625 L 27.6875 -30.90625 L 28.5625 -30.828125 L 29.546875 -30.375 L 30.078125 -29.578125 L 29.984375 -27.28125 L 30.078125 -25.96875 L 29.890625 -25.078125 L 29.890625 -23.3125 L 29.984375 -22.46875 L 29.84375 -20.703125 L 30.03125 -15.40625 L 29.9375 -14.4375 L 30.109375 -13.203125 L 29.890625 -1.1875 L 29.5 -0.265625 L 28.484375 0.21875 L 27.328125 -0.125 Z M 26.046875 -0.703125 "/></g></g></g><g fill="#38b6ff" fill-opacity="1"><g transform="translate(394.098152, 165.647062)"><g><path d="M 12.453125 -0.796875 L 11.265625 -3.21875 L 11.046875 -4.15625 L 10.59375 -4.8125 L 9.453125 -7.375 L 9.1875 -8.21875 L 8.4375 -9.796875 L 8.21875 -10.546875 L 5.296875 -17.125 L 4.859375 -17.84375 L 3.53125 -21.0625 L 3.09375 -21.859375 L 2.390625 -23.578125 L 1.90625 -24.421875 L 1.640625 -25.21875 L 1.234375 -26.015625 L 0.578125 -27.6875 L 0.171875 -28.484375 L 0 -29.546875 L 0.09375 -30.515625 L 1.015625 -30.90625 L 1.9375 -30.953125 L 2.734375 -30.859375 L 3.484375 -30.953125 L 5.96875 -30.828125 L 6.984375 -30.46875 L 7.734375 -29.578125 L 8.125 -28.875 L 8.4375 -28.078125 L 8.875 -27.25 L 9.015625 -26.40625 L 10.546875 -23.21875 L 10.734375 -22.34375 L 11.046875 -21.546875 L 11.4375 -20.84375 L 11.96875 -19.078125 L 12.453125 -18.28125 L 12.765625 -17.578125 L 13.03125 -16.6875 L 13.375 -15.890625 L 13.953125 -14.21875 L 14.3125 -13.421875 L 14.84375 -13.515625 L 15.359375 -14.3125 L 15.59375 -15.09375 L 16.03125 -15.9375 L 21.28125 -28.875 L 21.5 -29.671875 L 22.296875 -30.515625 L 23.3125 -30.859375 L 28.53125 -30.859375 L 29.28125 -30.59375 L 29.546875 -29.5 L 29.09375 -28.4375 L 28.921875 -27.6875 L 28.484375 -26.84375 L 28.171875 -25.96875 L 27.6875 -25.21875 L 27.46875 -24.421875 L 26.796875 -22.703125 L 26.234375 -22.03125 L 26.015625 -21.1875 L 25.390625 -20.40625 L 25.171875 -19.5625 L 24.953125 -18.8125 L 24.46875 -17.921875 L 23.984375 -16.25 L 23.046875 -14.65625 L 22.515625 -12.9375 L 19.875 -7.28125 L 19.609375 -6.484375 L 18.90625 -4.90625 L 18.453125 -4.15625 L 18.0625 -3.3125 L 17.3125 -1.59375 L 17.046875 -0.75 L 16.296875 -0.046875 L 15.09375 0.484375 L 14.21875 0.390625 L 13.15625 0 Z M 12.453125 -0.796875 "/></g></g></g><g fill="#38b6ff" fill-opacity="1"><g transform="translate(423.853623, 165.647062)"><g><path d="M 3.171875 -1.28125 L 3.359375 -2.15625 L 3.40625 -3.046875 L 3.3125 -4.765625 L 3.3125 -5.65625 L 3.21875 -6.671875 L 3.359375 -7.46875 L 3.3125 -8.296875 L 3.40625 -9.265625 L 3.265625 -10.203125 L 3.359375 -11.96875 L 3.21875 -13.6875 L 3.359375 -14.609375 L 3.359375 -22.515625 L 3.265625 -23.3125 L 3.359375 -24.234375 L 3.171875 -26.5 L 3.359375 -27.78125 L 3.265625 -29.546875 L 3.703125 -30.515625 L 4.984375 -30.828125 L 10.78125 -30.953125 L 11.5625 -30.859375 L 13.296875 -30.90625 L 14.171875 -30.828125 L 16.109375 -30.90625 L 17 -30.78125 L 17.796875 -30.859375 L 21.328125 -30.828125 L 22.25 -30.421875 L 22.703125 -29.546875 L 22.5625 -28.703125 L 22.515625 -27.734375 L 22.65625 -26.890625 L 22.734375 -25.078125 L 22.25 -24.28125 L 21.328125 -23.796875 L 12.84375 -23.75 L 11.484375 -23.359375 L 11.046875 -22.078125 L 11.125 -20.703125 L 11.65625 -19.921875 L 12.40625 -19.421875 L 15.890625 -19.46875 L 16.90625 -19.390625 L 17.84375 -19.390625 L 18.71875 -19.46875 L 20.484375 -19.421875 L 21.234375 -18.9375 L 21.640625 -18.109375 L 21.71875 -17.21875 L 21.640625 -13.734375 L 21.1875 -12.890625 L 20.3125 -12.40625 L 19.515625 -12.359375 L 18.59375 -12.453125 L 17.390625 -12.359375 L 15.0625 -12.5 L 14.171875 -12.40625 L 12.453125 -12.40625 L 11.65625 -11.921875 L 11.265625 -11 L 11.21875 -8.828125 L 11.609375 -7.46875 L 12.546875 -6.9375 L 13.515625 -7.015625 L 14.484375 -6.9375 L 15.328125 -7.0625 L 21.15625 -6.984375 L 22.46875 -6.53125 L 23.046875 -5.65625 L 22.96875 -4.8125 L 23 -2.078125 L 22.921875 -1.234375 L 22.515625 -0.390625 L 21.59375 0.046875 L 20.75 0.125 L 18.0625 -0.046875 L 15.359375 0.09375 L 14.578125 -0.046875 L 4.59375 0.046875 L 3.75 -0.4375 Z M 3.171875 -1.28125 "/></g></g></g><g fill="#38b6ff" fill-opacity="1"><g transform="translate(449.150182, 165.647062)"><g><path d="M 3.40625 -1.40625 L 3.265625 -4.859375 L 3.359375 -5.78125 L 3.171875 -8.34375 L 3.3125 -10.15625 L 3.171875 -11.125 L 3.21875 -12.8125 L 3.3125 -13.734375 L 3.3125 -15.9375 L 3.171875 -17.21875 L 3.3125 -29.578125 L 3.671875 -30.515625 L 4.5 -30.90625 L 5.46875 -30.859375 L 6.3125 -31 L 8.125 -30.828125 L 8.96875 -30.953125 L 11.609375 -30.859375 L 12.359375 -30.953125 L 13.328125 -30.859375 L 14.21875 -30.953125 L 15.1875 -30.90625 L 16.46875 -30.953125 L 17.578125 -30.859375 L 21.234375 -30.109375 L 22.78125 -29.3125 L 25 -27.640625 L 25.390625 -26.984375 L 26.015625 -26.3125 L 27.203125 -23.890625 L 27.421875 -23 L 27.546875 -22.171875 L 27.78125 -21.328125 L 27.734375 -17.84375 L 27.25 -16.15625 L 26.9375 -15.40625 L 26.453125 -14.609375 L 26.140625 -13.78125 L 25.609375 -13.03125 L 24.375 -11.828125 L 23.890625 -10.90625 L 24.015625 -9.84375 L 25.34375 -7.546875 L 25.921875 -6.84375 L 26.359375 -6.046875 L 26.890625 -5.25 L 27.28125 -4.5 L 28.703125 -2.34375 L 29.28125 -1.234375 L 29.09375 -0.3125 L 28.171875 -0.09375 L 27.203125 0 L 25.4375 0 L 24.546875 -0.09375 L 23.578125 0 L 21.984375 -0.09375 L 20.890625 -0.359375 L 20 -1.140625 L 19.46875 -1.859375 L 19.078125 -2.609375 L 18.5 -3.4375 L 17.265625 -5.65625 L 16.953125 -6.484375 L 15.8125 -8.03125 L 15.09375 -8.78125 L 14 -9.140625 L 13.203125 -9.09375 L 12.40625 -9.09375 L 11.53125 -8.65625 L 11.125 -7.765625 L 11.21875 -5.03125 L 11.078125 -3.140625 L 11.265625 -2.203125 L 11.171875 -1.28125 L 10.859375 -0.4375 L 9.5 0 L 8.171875 0 L 7.234375 -0.09375 L 5.4375 0.046875 L 4.59375 0 L 3.703125 -0.4375 Z M 12.40625 -16.25 L 13.375 -16.25 L 14.265625 -16.109375 L 17.703125 -16.421875 L 18.375 -16.734375 L 18.90625 -17.265625 L 19.390625 -18.015625 L 19.734375 -18.90625 L 19.875 -20.09375 L 19.78125 -21.375 L 19.46875 -22.078125 L 19.03125 -22.734375 L 17.65625 -23.578125 L 15.625 -23.84375 L 13.203125 -23.890625 L 12.5 -23.84375 L 11.609375 -23.40625 L 11.078125 -22.515625 L 11.21875 -17.578125 L 11.65625 -16.640625 Z M 12.40625 -16.25 "/></g></g></g><g fill="#38b6ff" fill-opacity="1"><g transform="translate(479.744454, 165.647062)"><g><path d="M 8.484375 -1.375 L 8.4375 -4.8125 L 8.515625 -5.703125 L 8.390625 -8.390625 L 8.4375 -9.3125 L 8.390625 -10.203125 L 8.5625 -11.53125 L 8.4375 -12.8125 L 8.4375 -14.578125 L 8.515625 -15.453125 L 8.4375 -16.296875 L 8.5625 -17.65625 L 8.4375 -22.515625 L 8 -23.359375 L 7.203125 -23.84375 L 3.265625 -23.890625 L 2.125 -23.75 L 1.234375 -24.203125 L 0.75 -25.171875 L 0.796875 -29.578125 L 1.234375 -30.46875 L 2.203125 -30.90625 L 15.359375 -30.828125 L 16.375 -30.953125 L 17.265625 -30.953125 L 18.140625 -30.859375 L 19.03125 -30.859375 L 20 -31 L 20.84375 -31 L 21.546875 -30.90625 L 22.609375 -31 L 23.484375 -30.5625 L 23.9375 -29.671875 L 23.84375 -26.046875 L 23.9375 -25.125 L 23.484375 -24.234375 L 22.46875 -23.84375 L 20.046875 -23.890625 L 19.25 -23.796875 L 18.375 -23.84375 L 17.625 -23.796875 L 16.640625 -23.40625 L 16.296875 -22.609375 L 16.375 -21.640625 L 16.25 -20.75 L 16.421875 -11.96875 L 16.296875 -10.109375 L 16.375 -9.3125 L 16.296875 -6.625 L 16.15625 -5.703125 L 16.296875 -4.953125 L 16.34375 -3.171875 L 16.25 -2.15625 L 16.296875 -1.328125 L 15.9375 -0.4375 L 15.0625 -0.09375 L 12.3125 -0.09375 L 11.484375 0 L 10.59375 -0.09375 L 9.765625 0 L 8.828125 -0.4375 Z M 8.484375 -1.375 "/></g></g></g><g fill="#38b6ff" fill-opacity="1"><g transform="translate(504.422956, 165.647062)"><g><path d="M 3.171875 -1.28125 L 3.359375 -2.15625 L 3.40625 -3.046875 L 3.3125 -4.765625 L 3.3125 -5.65625 L 3.21875 -6.671875 L 3.359375 -7.46875 L 3.3125 -8.296875 L 3.40625 -9.265625 L 3.265625 -10.203125 L 3.359375 -11.96875 L 3.21875 -13.6875 L 3.359375 -14.609375 L 3.359375 -22.515625 L 3.265625 -23.3125 L 3.359375 -24.234375 L 3.171875 -26.5 L 3.359375 -27.78125 L 3.265625 -29.546875 L 3.703125 -30.515625 L 4.984375 -30.828125 L 10.78125 -30.953125 L 11.5625 -30.859375 L 13.296875 -30.90625 L 14.171875 -30.828125 L 16.109375 -30.90625 L 17 -30.78125 L 17.796875 -30.859375 L 21.328125 -30.828125 L 22.25 -30.421875 L 22.703125 -29.546875 L 22.5625 -28.703125 L 22.515625 -27.734375 L 22.65625 -26.890625 L 22.734375 -25.078125 L 22.25 -24.28125 L 21.328125 -23.796875 L 12.84375 -23.75 L 11.484375 -23.359375 L 11.046875 -22.078125 L 11.125 -20.703125 L 11.65625 -19.921875 L 12.40625 -19.421875 L 15.890625 -19.46875 L 16.90625 -19.390625 L 17.84375 -19.390625 L 18.71875 -19.46875 L 20.484375 -19.421875 L 21.234375 -18.9375 L 21.640625 -18.109375 L 21.71875 -17.21875 L 21.640625 -13.734375 L 21.1875 -12.890625 L 20.3125 -12.40625 L 19.515625 -12.359375 L 18.59375 -12.453125 L 17.390625 -12.359375 L 15.0625 -12.5 L 14.171875 -12.40625 L 12.453125 -12.40625 L 11.65625 -11.921875 L 11.265625 -11 L 11.21875 -8.828125 L 11.609375 -7.46875 L 12.546875 -6.9375 L 13.515625 -7.015625 L 14.484375 -6.9375 L 15.328125 -7.0625 L 21.15625 -6.984375 L 22.46875 -6.53125 L 23.046875 -5.65625 L 22.96875 -4.8125 L 23 -2.078125 L 22.921875 -1.234375 L 22.515625 -0.390625 L 21.59375 0.046875 L 20.75 0.125 L 18.0625 -0.046875 L 15.359375 0.09375 L 14.578125 -0.046875 L 4.59375 0.046875 L 3.75 -0.4375 Z M 3.171875 -1.28125 "/></g></g></g><g fill="#38b6ff" fill-opacity="1"><g transform="translate(529.719527, 165.647062)"><g><path d="M 3.40625 -1.40625 L 3.265625 -4.859375 L 3.359375 -5.78125 L 3.171875 -8.34375 L 3.3125 -10.15625 L 3.171875 -11.125 L 3.21875 -12.8125 L 3.3125 -13.734375 L 3.3125 -15.9375 L 3.171875 -17.21875 L 3.3125 -29.578125 L 3.671875 -30.515625 L 4.5 -30.90625 L 5.46875 -30.859375 L 6.3125 -31 L 8.125 -30.828125 L 8.96875 -30.953125 L 11.609375 -30.859375 L 12.359375 -30.953125 L 13.328125 -30.859375 L 14.21875 -30.953125 L 15.1875 -30.90625 L 16.46875 -30.953125 L 17.578125 -30.859375 L 21.234375 -30.109375 L 22.78125 -29.3125 L 25 -27.640625 L 25.390625 -26.984375 L 26.015625 -26.3125 L 27.203125 -23.890625 L 27.421875 -23 L 27.546875 -22.171875 L 27.78125 -21.328125 L 27.734375 -17.84375 L 27.25 -16.15625 L 26.9375 -15.40625 L 26.453125 -14.609375 L 26.140625 -13.78125 L 25.609375 -13.03125 L 24.375 -11.828125 L 23.890625 -10.90625 L 24.015625 -9.84375 L 25.34375 -7.546875 L 25.921875 -6.84375 L 26.359375 -6.046875 L 26.890625 -5.25 L 27.28125 -4.5 L 28.703125 -2.34375 L 29.28125 -1.234375 L 29.09375 -0.3125 L 28.171875 -0.09375 L 27.203125 0 L 25.4375 0 L 24.546875 -0.09375 L 23.578125 0 L 21.984375 -0.09375 L 20.890625 -0.359375 L 20 -1.140625 L 19.46875 -1.859375 L 19.078125 -2.609375 L 18.5 -3.4375 L 17.265625 -5.65625 L 16.953125 -6.484375 L 15.8125 -8.03125 L 15.09375 -8.78125 L 14 -9.140625 L 13.203125 -9.09375 L 12.40625 -9.09375 L 11.53125 -8.65625 L 11.125 -7.765625 L 11.21875 -5.03125 L 11.078125 -3.140625 L 11.265625 -2.203125 L 11.171875 -1.28125 L 10.859375 -0.4375 L 9.5 0 L 8.171875 0 L 7.234375 -0.09375 L 5.4375 0.046875 L 4.59375 0 L 3.703125 -0.4375 Z M 12.40625 -16.25 L 13.375 -16.25 L 14.265625 -16.109375 L 17.703125 -16.421875 L 18.375 -16.734375 L 18.90625 -17.265625 L 19.390625 -18.015625 L 19.734375 -18.90625 L 19.875 -20.09375 L 19.78125 -21.375 L 19.46875 -22.078125 L 19.03125 -22.734375 L 17.65625 -23.578125 L 15.625 -23.84375 L 13.203125 -23.890625 L 12.5 -23.84375 L 11.609375 -23.40625 L 11.078125 -22.515625 L 11.21875 -17.578125 L 11.65625 -16.640625 Z M 12.40625 -16.25 "/></g></g></g><g fill="#38b6ff" fill-opacity="1"><g transform="translate(560.313799, 165.647062)"><g><path d="M 12.8125 0.359375 L 10.953125 0.21875 L 10.109375 -0.09375 L 9.140625 -0.21875 L 5.96875 -1.671875 L 5.203125 -2.15625 L 3.9375 -3.4375 L 2.828125 -4.8125 L 2.125 -6.578125 L 1.9375 -7.375 L 1.859375 -8.34375 L 2.15625 -9.265625 L 3.046875 -9.671875 L 3.9375 -9.625 L 4.8125 -9.71875 L 8.171875 -9.625 L 9.046875 -9.265625 L 9.71875 -8.390625 L 10.375 -7.765625 L 11.171875 -7.28125 L 11.828125 -6.984375 L 12.84375 -6.71875 L 14.171875 -6.625 L 15.40625 -6.671875 L 17.046875 -7.15625 L 17.75 -7.546875 L 18.453125 -8.171875 L 18.71875 -9.3125 L 18.5 -10.46875 L 17.890625 -11 L 16.296875 -11.65625 L 15.40625 -11.703125 L 14.609375 -11.828125 L 11 -12.09375 L 9.40625 -12.453125 L 6.890625 -13.296875 L 5.34375 -14.21875 L 4.109375 -15.359375 L 3 -16.828125 L 2.421875 -18.375 L 2.125 -19.609375 L 2.078125 -22.5625 L 2.6875 -25.125 L 3.140625 -25.828125 L 3.4375 -26.625 L 4.015625 -27.203125 L 4.5 -27.953125 L 5.296875 -28.484375 L 5.921875 -29.0625 L 6.796875 -29.578125 L 7.5 -29.84375 L 8.21875 -30.296875 L 9.015625 -30.59375 L 12.5 -31.3125 L 14.96875 -31.34375 L 15.9375 -31.125 L 16.734375 -31.046875 L 17.65625 -30.859375 L 20.09375 -30.03125 L 22.921875 -28.078125 L 23.484375 -27.421875 L 23.9375 -26.71875 L 24.5 -26.015625 L 25.21875 -24.421875 L 25.5625 -22.703125 L 25.171875 -21.859375 L 24.328125 -21.328125 L 23.484375 -21.421875 L 22.703125 -21.328125 L 19.78125 -21.421875 L 18.40625 -21.859375 L 16.953125 -23.40625 L 16.296875 -23.9375 L 15.328125 -24.28125 L 12.5 -24.203125 L 11.703125 -24.015625 L 11.078125 -23.75 L 10.328125 -23.1875 L 9.84375 -22.5625 L 9.71875 -21.421875 L 9.765625 -20.21875 L 10.46875 -19.515625 L 11.125 -19.15625 L 12.984375 -18.5 L 17.4375 -17.921875 L 21.0625 -17.046875 L 23.40625 -15.984375 L 24.15625 -15.359375 L 25.21875 -14 L 26.09375 -12.359375 L 26.3125 -11.53125 L 26.453125 -10.640625 L 26.40625 -7.90625 L 26.265625 -7.109375 L 26.015625 -6.21875 L 25.65625 -5.4375 L 24.765625 -4.015625 L 23.53125 -2.609375 L 22.125 -1.640625 L 19.828125 -0.390625 L 15.5 0.4375 L 14.078125 0.484375 Z M 12.8125 0.359375 "/></g></g></g></svg>